HIERARCHY
ROOT Hips
{
	OFFSET 0.00000 0.00000 0.00000
	CHANNELS 6 Xposition Yposition Zposition Zrotation Yrotation Xrotation 
	JOINT LHipJoint
	{
		OFFSET 0 0 0
		CHANNELS 3 Zrotation Yrotation Xrotation
		JOINT LeftUpLeg
		{
			OFFSET 1.58895 -1.83665 0.71753
			CHANNELS 3 Zrotation Yrotation Xrotation
			JOINT LeftLeg
			{
				OFFSET 2.50528 -6.88321 0.00000
				CHANNELS 3 Zrotation Yrotation Xrotation
				JOINT LeftFoot
				{
					OFFSET 2.63244 -7.23257 0.00000
					CHANNELS 3 Zrotation Yrotation Xrotation
					JOINT LeftToeBase
					{
						OFFSET 0.23691 -0.65090 1.72750
						CHANNELS 3 Zrotation Yrotation Xrotation
						End Site
						{
							OFFSET 0.00000 -0.00000 0.92561
						}
					}
				}
			}
		}
	}
	JOINT RHipJoint
	{
		OFFSET 0 0 0
		CHANNELS 3 Zrotation Yrotation Xrotation
		JOINT RightUpLeg
		{
			OFFSET -1.51435 -1.83665 0.71753
			CHANNELS 3 Zrotation Yrotation Xrotation
			JOINT RightLeg
			{
				OFFSET -2.54551 -6.99375 0.00000
				CHANNELS 3 Zrotation Yrotation Xrotation
				JOINT RightFoot
				{
					OFFSET -2.66027 -7.30903 0.00000
					CHANNELS 3 Zrotation Yrotation Xrotation
					JOINT RightToeBase
					{
						OFFSET -0.22981 -0.63138 2.03959
						CHANNELS 3 Zrotation Yrotation Xrotation
						End Site
						{
							OFFSET -0.00000 -0.00000 1.07060
						}
					}
				}
			}
		}
	}
	JOINT LowerBack
	{
		OFFSET 0 0 0
		CHANNELS 3 Zrotation Yrotation Xrotation
		JOINT Spine
		{
			OFFSET -0.02651 1.86275 -0.11152
			CHANNELS 3 Zrotation Yrotation Xrotation
			JOINT Spine1
			{
				OFFSET 0.01019 1.86224 0.04087
				CHANNELS 3 Zrotation Yrotation Xrotation
				JOINT Neck
				{
					OFFSET 0 0 0
					CHANNELS 3 Zrotation Yrotation Xrotation
					JOINT Neck1
					{
						OFFSET -0.01926 1.80512 0.08867
						CHANNELS 3 Zrotation Yrotation Xrotation
						JOINT Head
						{
							OFFSET 0.05516 1.76451 -0.38475
							CHANNELS 3 Zrotation Yrotation Xrotation
							End Site
							{
								OFFSET 0.01592 1.82587 -0.14001
							}
						}
					}
				}
				JOINT LeftShoulder
				{
					OFFSET 0 0 0
					CHANNELS 3 Zrotation Yrotation Xrotation
					JOINT LeftArm
					{
						OFFSET 3.47116 1.51376 0.14491
						CHANNELS 3 Zrotation Yrotation Xrotation
						JOINT LeftForeArm
						{
							OFFSET 4.78095 -0.00000 0.00000
							CHANNELS 3 Zrotation Yrotation Xrotation
							JOINT LeftHand
							{
								OFFSET 3.58615 -0.00000 -0.00000
								CHANNELS 3 Zrotation Yrotation Xrotation
								JOINT LeftFingerBase
								{
									OFFSET 0 0 0
									CHANNELS 3 Zrotation Yrotation Xrotation
									JOINT LeftHandIndex1
									{
										OFFSET 0.65981 -0.00000 0.00000
										CHANNELS 3 Zrotation Yrotation Xrotation
										End Site
										{
											OFFSET 0.53196 -0.00000 0.00000
										}
									}
								}
								JOINT LThumb
								{
									OFFSET 0 0 0
									CHANNELS 3 Zrotation Yrotation Xrotation
									End Site
									{
										OFFSET 0.54008 -0.00000 0.54008
									}
								}
							}
						}
					}
				}
				JOINT RightShoulder
				{
					OFFSET 0 0 0
					CHANNELS 3 Zrotation Yrotation Xrotation
					JOINT RightArm
					{
						OFFSET -3.31725 1.61216 0.35156
						CHANNELS 3 Zrotation Yrotation Xrotation
						JOINT RightForeArm
						{
							OFFSET -4.48913 -0.00000 0.00000
							CHANNELS 3 Zrotation Yrotation Xrotation
							JOINT RightHand
							{
								OFFSET -3.70510 -0.00000 0.00000
								CHANNELS 3 Zrotation Yrotation Xrotation
								JOINT RightFingerBase
								{
									OFFSET 0 0 0
									CHANNELS 3 Zrotation Yrotation Xrotation
									JOINT RightHandIndex1
									{
										OFFSET -0.44914 -0.00000 0.00000
										CHANNELS 3 Zrotation Yrotation Xrotation
										End Site
										{
											OFFSET -0.36211 -0.00000 0.00000
										}
									}
								}
								JOINT RThumb
								{
									OFFSET 0 0 0
									CHANNELS 3 Zrotation Yrotation Xrotation
									End Site
									{
										OFFSET -0.36763 -0.00000 0.36763
									}
								}
							}
						}
					}
				}
			}
		}
	}
}
MOTION
Frames: 10
Frame Time: .0083333
-0.6908 18.6727 5.7157 0 0 0 0 0 0 -21 0 0 0 0 0 0 0 0 0 0 0 0 0 0 21 0 0 0 0 0 0 0 0 0 0 0 0 0 0 0 0 0 0 0 0 0 0 -16 0 0 21 0 0 11 0 0 0 -8 0 0 0 0 0 0 0 0 0 0 0 0 0 0 0 0 0 0 0 0 8 0 0 0 0 0 0 0 0 0 0 0 0 0 0 0 0 0
-0.6908 18.6727 5.7157 -1.4765 -5.4976 1.6942 0.0000 0.0000 0.0000 -13.6439 -6.7646 0.0394 1.1426 6.7879 19.0885 1.7697 9.3399 -29.9765 8.1754 -16.2468 -53.1921 0.0000 0.0000 0.0000 0.0000 0.0000 0.0000 0.0000 0.0000 0.0000 -0.0000 -0.0000 0.0000 -0.0000 -0.0000 0.0000 0.4532 1.4355 0.0665 0.2115 1.9230 -1.8052 -0.0697 0.9553 -1.8785 -4.0790 -2.1711 -11.1135 2.9356 -3.1239 31.2792 1.3945 -1.5197 12.2510 -0.0000 0.0000 0.0000 -85.9162 12.6748 41.7161 30.0537 -40.9394 -11.4448 -0.0000 0.0000 -3.2915 7.8579 -25.6939 -3.4243 -7.1250 0.0000 -0.0000 -13.2143 4.6496 12.4420 -0.0000 0.0000 0.0000 89.4122 -18.6655 30.7756 -29.5970 40.5454 -11.1467 0.0000 0.0000 17.8996 -13.5985 -31.3047 7.1638 7.1250 -0.0000 -0.0000 21.1765 -60.7546 -8.3474
-0.6923 18.6729 5.7073 -1.4835 -5.4105 1.6323 0.0000 0.0000 0.0000 -13.6114 -6.7391 0.0276 1.1468 6.8000 19.1242 1.7704 9.2213 -29.9004 8.1579 -16.2342 -53.1294 0.0000 0.0000 0.0000 0.0000 0.0000 0.0000 0.0000 0.0000 0.0000 -0.0000 -0.0000 0.0000 -0.0000 -0.0000 0.0000 0.4460 1.4391 0.1881 0.1961 1.9278 -1.6954 -0.0831 0.9579 -1.8338 -4.1951 -2.2257 -11.1356 3.0716 -3.2198 31.3870 1.4540 -1.5589 12.3089 -0.0000 -0.0000 0.0000 -85.0546 12.6079 43.2557 32.0649 -42.5988 -12.7847 -0.0000 0.0000 -4.4452 7.9166 -26.5500 -3.5566 -7.1250 0.0000 -0.0000 -13.1994 3.8081 12.6397 -0.0000 -0.0000 0.0000 88.8161 -18.8695 32.4580 -31.4043 42.0671 -12.3399 0.0000 0.0000 18.0681 -14.4312 -31.5381 7.6662 7.1250 -0.0000 -0.0000 20.4802 -61.1721 -8.2631
-0.6911 18.6737 5.6985 -1.5114 -5.3412 1.5783 0.0000 0.0000 0.0000 -13.5587 -6.6533 -0.0233 1.1525 6.8161 19.1718 1.7546 9.1864 -29.7749 8.1820 -16.2515 -53.2155 0.0000 0.0000 0.0000 0.0000 0.0000 0.0000 0.0000 0.0000 0.0000 -0.0000 -0.0000 0.0000 -0.0000 -0.0000 0.0000 0.4686 1.4483 0.2893 0.1903 1.9402 -1.5527 -0.1023 0.9642 -1.7431 -4.2788 -2.2825 -11.2280 3.1841 -3.3163 31.4806 1.4983 -1.5965 12.3751 0.0000 -0.0000 0.0000 -84.0486 12.5631 45.0125 34.6497 -44.5604 -14.5670 -0.0000 0.0000 -5.3072 8.1672 -27.3017 -3.7662 -7.1250 0.0000 -0.0000 -13.0728 3.0475 12.6994 0.0000 -0.0000 0.0000 87.9884 -19.0554 34.4601 -33.7167 43.8737 -13.9163 0.0000 0.0000 18.5319 -15.9462 -31.8252 8.5685 7.1250 -0.0000 -0.0000 19.0791 -61.8138 -7.9639
-0.6896 18.6748 5.6880 -1.5369 -5.2865 1.5235 0.0000 0.0000 0.0000 -13.5299 -6.6445 -0.0342 1.1563 6.8271 19.2041 1.7441 9.1822 -29.7038 8.1800 -16.2501 -53.2086 0.0000 0.0000 0.0000 0.0000 0.0000 0.0000 0.0000 0.0000 0.0000 -0.0000 -0.0000 0.0000 -0.0000 -0.0000 0.0000 0.4673 1.4626 0.3960 0.1826 1.9593 -1.3933 -0.1102 0.9741 -1.6392 -4.2218 -2.3382 -11.2994 3.1708 -3.4034 31.4644 1.4704 -1.6291 12.3863 -0.0000 -0.0000 0.0000 -82.7867 12.5047 47.0910 37.8900 -46.7689 -16.8854 -0.0000 0.0000 -5.6725 8.8962 -27.9498 -4.1959 -7.1250 0.0000 -0.0000 -12.6677 2.3317 12.4538 -0.0000 -0.0000 0.0000 86.8503 -19.2008 37.1998 -36.5745 45.9043 -15.9337 0.0000 0.0000 18.3064 -17.2475 -32.1533 9.3818 7.1250 -0.0000 -0.0000 17.9202 -62.4516 -7.7323
-0.6897 18.6749 5.6767 -1.4812 -5.1310 1.4367 0.0000 0.0000 0.0000 -13.5932 -6.7353 0.0043 1.1602 6.8381 19.2365 1.7448 9.1169 -29.6640 8.1644 -16.2388 -53.1526 0.0000 0.0000 0.0000 0.0000 0.0000 0.0000 0.0000 0.0000 0.0000 -0.0000 -0.0000 0.0000 -0.0000 -0.0000 0.0000 0.3607 1.4375 0.5176 0.1651 1.9241 -1.2082 -0.0681 0.9582 -1.5206 -4.2664 -2.4004 -11.3669 3.2348 -3.4982 31.4042 1.4881 -1.6674 12.3827 -0.0000 -0.0000 0.0000 -81.3398 12.2995 49.3532 41.6905 -49.0401 -19.7065 -0.0000 0.0000 -5.5274 10.1883 -28.7919 -4.9471 -7.1250 0.0000 -0.0000 -11.9523 1.3496 11.9320 -0.0000 -0.0000 0.0000 85.4123 -19.2005 40.3072 -40.0056 48.0732 -18.4434 0.0000 0.0000 17.9310 -17.4968 -32.1125 9.5129 7.1250 -0.0000 -0.0000 17.6093 -62.4766 -7.6041
-0.6903 18.6748 5.6630 -1.4487 -4.9645 1.3798 0.0000 0.0000 0.0000 -13.5942 -6.7057 -0.0626 1.1639 6.8488 19.2682 1.7265 9.0623 -29.5074 8.2070 -16.2694 -53.3050 0.0000 0.0000 0.0000 0.0000 0.0000 0.0000 0.0000 0.0000 0.0000 -0.0000 -0.0000 0.0000 -0.0000 -0.0000 0.0000 0.2884 1.4216 0.6460 0.1467 1.9016 -1.0448 -0.0470 0.9480 -1.4270 -4.4321 -2.4622 -11.3987 3.4198 -3.6029 31.3781 1.5726 -1.7095 12.3915 0.0000 -0.0000 0.0000 -79.8394 11.8625 51.5153 45.9595 -51.2299 -22.9844 -0.0000 0.0000 -5.0668 11.2988 -29.6078 -5.6375 -7.1250 0.0000 -0.0000 -11.3564 0.4016 11.5054 0.0000 -0.0000 0.0000 83.9311 -19.1110 42.8170 -43.9982 50.2682 -21.4655 0.0000 0.0000 18.1829 -17.0410 -31.5760 9.1182 7.1250 -0.0000 -0.0000 17.6763 -61.8522 -7.3732
-0.6890 18.6763 5.6452 -1.4443 -4.9445 1.4046 0.0000 0.0000 0.0000 -13.5719 -6.6529 -0.2257 1.1677 6.8596 19.3000 1.7078 9.0702 -29.3904 8.2291 -16.2852 -53.3836 0.0000 0.0000 0.0000 0.0000 0.0000 0.0000 0.0000 0.0000 0.0000 -0.0000 -0.0000 0.0000 -0.0000 -0.0000 0.0000 0.2540 1.4608 0.7980 0.1179 1.9535 -0.9621 -0.0610 0.9742 -1.4276 -4.4783 -2.4986 -11.3560 3.5407 -3.6837 31.3794 1.6160 -1.7357 12.3907 0.0000 0.0000 0.0000 -78.3589 11.2466 53.4120 50.6377 -53.2495 -26.6842 -0.0000 0.0000 -4.8122 11.7626 -30.1989 -5.9794 -7.1250 0.0000 -0.0000 -11.1292 -0.2448 11.3934 0.0000 0.0000 0.0000 82.5273 -18.9820 44.9428 -48.5562 52.3964 -25.0257 0.0000 0.0000 18.3328 -17.0889 -31.1451 9.0346 7.1250 -0.0000 -0.0000 17.2843 -61.4541 -7.0412
-0.6871 18.6793 5.6267 -1.4296 -4.9066 1.4649 0.0000 0.0000 0.0000 -13.5778 -6.7463 -0.3773 1.1725 6.8730 19.3396 1.6990 9.0950 -29.3494 8.2242 -16.2817 -53.3662 0.0000 0.0000 0.0000 0.0000 0.0000 0.0000 0.0000 0.0000 0.0000 -0.0000 -0.0000 0.0000 -0.0000 -0.0000 0.0000 0.1748 1.4833 0.9696 0.0979 1.9825 -0.9279 -0.0422 0.9893 -1.4906 -4.3818 -2.5305 -11.3278 3.4868 -3.7406 31.4744 1.5718 -1.7565 12.4233 0.0000 0.0000 0.0000 -76.9235 10.5252 55.0585 55.7940 -55.0808 -30.8660 -0.0000 0.0000 -5.1000 11.7023 -30.4158 -5.9865 -7.1250 0.0000 -0.0000 -11.1791 -0.4499 11.4867 0.0000 0.0000 0.0000 81.1317 -18.6854 47.0351 -53.5234 54.3213 -29.0127 0.0000 0.0000 18.3187 -17.7195 -30.9427 9.3297 7.1250 -0.0000 -0.0000 16.4366 -61.4163 -6.6703
-0.6849 18.6831 5.6078 -1.4385 -4.7870 1.5201 0.0000 0.0000 0.0000 -13.5548 -6.8984 -0.5107 1.1780 6.8886 19.3857 1.6859 9.1124 -29.2751 8.2412 -16.2938 -53.4269 0.0000 0.0000 0.0000 0.0000 0.0000 0.0000 0.0000 0.0000 0.0000 -0.0000 -0.0000 0.0000 -0.0000 -0.0000 0.0000 0.0985 1.4875 1.1564 0.1107 1.9873 -0.8972 0.0085 0.9924 -1.5670 -4.2900 -2.5688 -11.3286 3.3831 -3.7908 31.6458 1.5108 -1.7806 12.4922 0.0000 0.0000 0.0000 -75.5709 9.5757 56.6511 61.1528 -56.6094 -35.3020 -0.0000 0.0000 -5.7792 11.6346 -30.3136 -5.9331 -7.1250 0.0000 -0.0000 -11.2106 -0.3397 11.4987 0.0000 0.0000 0.0000 79.6519 -18.1513 48.9795 -58.6996 55.9533 -33.2613 0.0000 0.0000 18.3684 -20.0326 -30.1844 10.3882 7.1250 -0.0000 -0.0000 13.3248 -61.2510 -5.3269
